#!OML:ASF F:\VICON\USERDATA\INSTALL\Justin_Nancy\Justin_Nancy.ASF
:FULLY-SPECIFIED
:DEGREES
64
root 9.20318 17.38 -19.7427 1.01846 -2.55696 -4.57839
lowerback 5.83205 1.15161 4.36237
upperback -0.0806869 1.94737 3.40692
thorax -3.33192 0.922128 0.906683
lowerneck -17.1223 -4.68465 -9.53114
upperneck 20.9462 -5.32378 5.90486
head 9.90759 -2.56522 2.92455
rclavicle -1.87852e-014 1.90833e-014
rhumerus -25.6618 -9.30585 -77.992
rradius 38.5705
rwrist 0.194547
rhand -13.1506 13.4066
rfingers 7.12502
rthumb 12.948 -16.1716
lclavicle -1.87852e-014 1.90833e-014
lhumerus -39.4906 18.0202 80.0855
lradius 21.8279
lwrist -13.7277
lhand -12.1498 26.9699
lfingers 7.12502
lthumb 13.9127 56.4844
rfemur 11.2117 6.65576 32.3264
rtibia 14.4168
rfoot -12.7775 -3.0186
rtoes 1.5744
lfemur -30.4158 -4.55658 -11.9986
ltibia 22.698
lfoot -8.29915 9.13329
ltoes -10.2457
65
root 9.21041 17.3656 -19.5889 0.823121 -2.5475 -4.5783
lowerback 6.00351 1.14123 4.28557
upperback -0.0956453 1.9429 3.45672
thorax -3.44827 0.919765 0.99768
lowerneck -16.7761 -4.75469 -9.85309
upperneck 21.0679 -5.42181 6.1023
head 9.91105 -2.62129 3.03972
rclavicle -2.93207e-015 7.95139e-016
rhumerus -25.6699 -9.26315 -77.8676
rradius 38.4962
rwrist 0.029328
rhand -13.3217 13.6216
rfingers 7.12502
rthumb 12.7831 -15.9671
lclavicle -2.93207e-015 7.95139e-016
lhumerus -39.6222 18.6859 79.6552
lradius 21.2383
lwrist -14.253
lhand -12.7251 25.5134
lfingers 7.12502
lthumb 13.3581 55.0652
rfemur 11.6254 6.75593 32.4171
rtibia 15.0797
rfoot -12.819 -3.16049
rtoes 1.2737
lfemur -30.1228 -4.17848 -12.2496
ltibia 23.2425
lfoot -8.0153 8.84944
ltoes -14.66
66
root 9.21681 17.3533 -19.4315 0.710897 -2.49463 -4.49473
lowerback 5.92913 1.09221 4.08406
upperback 0.0407425 1.85299 3.51369
thorax -3.27415 0.882486 1.17932
lowerneck -16.5972 -4.72448 -9.88868
upperneck 20.7324 -5.36162 6.05258
head 9.75326 -2.60231 3.03497
rclavicle -4.77083e-015 -1.66979e-014
rhumerus -25.5941 -9.20613 -77.8234
rradius 38.7042
rwrist -0.17948
rhand -13.4353 13.6186
rfingers 7.12502
rthumb 12.6736 -15.9769
lclavicle -4.77083e-015 -1.66979e-014
lhumerus -39.4671 19.0545 79.5992
lradius 20.8436
lwrist -14.3158
lhand -13.382 23.8786
lfingers 7.12502
lthumb 12.725 53.4708
rfemur 11.8198 6.88946 32.4272
rtibia 16.1205
rfoot -12.938 -3.3172
rtoes 0.65335
lfemur -29.8073 -3.40055 -12.7418
ltibia 23.6382
lfoot -7.81947 8.06649
ltoes -16.4656
67
root 9.22422 17.3404 -19.2707 0.625514 -2.40564 -4.41367
lowerback 5.91089 1.05645 4.03521
upperback 0.181278 1.79162 3.47145
thorax -3.11869 0.855419 1.1694
lowerneck -16.6901 -4.77328 -9.73852
upperneck 20.4154 -5.41738 5.92602
head 9.65531 -2.62608 2.95282
rclavicle 2.83268e-015 -9.54166e-015
rhumerus -25.3928 -9.52239 -77.8809
rradius 38.8408
rwrist 0.0473085
rhand -13.6051 13.4665
rfingers 7.12502
rthumb 12.5099 -16.139
lclavicle 2.83268e-015 -9.54166e-015
lhumerus -39.2197 18.9193 79.7713
lradius 21.0389
lwrist -14.149
lhand -12.9924 24.8605
lfingers 7.12502
lthumb 13.1006 54.429
rfemur 11.8654 6.81105 32.3784
rtibia 17.315
rfoot -12.9804 -3.36355
rtoes -1.19966
lfemur -29.4651 -2.9048 -13.107
ltibia 23.9257
lfoot -7.79043 7.18587
ltoes -16.3274
68
root 9.23478 17.3127 -19.1015 0.503352 -2.38415 -4.33431
lowerback 5.92156 1.07742 3.99749
upperback 0.272565 1.81037 3.39831
thorax -3.02859 0.866567 1.11369
lowerneck -17.0167 -4.85608 -9.6126
upperneck 20.4421 -5.53528 5.92367
head 9.73131 -2.6655 2.91027
rclavicle 1.56046e-014 1.90833e-014
rhumerus -25.3723 -9.84715 -77.8768
rradius 38.9799
rwrist 0.0877619
rhand -13.3343 13.4857
rfingers 7.12502
rthumb 12.7709 -16.1037
lclavicle 1.56046e-014 1.90833e-014
lhumerus -38.9798 18.6574 79.875
lradius 21.1931
lwrist -14.1046
lhand -12.3268 26.5156
lfingers 7.12502
lthumb 13.7421 56.0418
rfemur 11.9496 6.68718 32.3105
rtibia 18.5541
rfoot -12.9692 -3.29022
rtoes -3.24613
lfemur -29.0009 -2.75335 -13.3482
ltibia 24.0866
lfoot -7.61952 6.40016
ltoes -15.9734
69
root 9.24375 17.2988 -18.9325 0.344858 -2.54017 -4.29363
lowerback 5.88471 1.11695 3.93559
upperback 0.352191 1.85139 3.3751
thorax -2.92618 0.889522 1.12225
lowerneck -17.1737 -4.83837 -9.84459
upperneck 20.6806 -5.52589 6.2745
head 9.86155 -2.63914 3.07505
rclavicle 2.4699e-014 2.38542e-014
rhumerus -25.5532 -9.8794 -77.8613
rradius 39.1796
rwrist -0.0555873
rhand -13.2757 13.4498
rfingers 7.12502
rthumb 12.8275 -16.136
lclavicle 2.4699e-014 2.38542e-014
lhumerus -38.8124 19.412 79.3272
lradius 20.6105
lwrist -15.0824
lhand -12.0141 26.4334
lfingers 7.12502
lthumb 14.0434 55.939
rfemur 12.0389 6.74816 32.3165
rtibia 19.8417
rfoot -12.8124 -3.3186
rtoes -4.52417
lfemur -28.4247 -2.95177 -13.4007
ltibia 24.1555
lfoot -7.09858 5.82892
ltoes -14.6118
70
root 9.25681 17.3068 -18.7559 0.312282 -2.62518 -4.14188
lowerback 5.59557 1.17177 3.8361
upperback 0.439564 1.89348 3.32889
thorax -2.67477 0.915351 1.13357
lowerneck -17.1833 -4.85644 -10.0577
upperneck 20.8739 -5.55058 6.4836
head 9.94744 -2.6452 3.18357
rclavicle 4.96962e-017 -3.97569e-015
rhumerus -25.7731 -9.91621 -77.8338
rradius 39.4633
rwrist -0.27617
rhand -13.4117 13.1167
rfingers 7.12502
rthumb 12.6963 -16.4773
lclavicle 4.96962e-017 -3.97569e-015
lhumerus -38.7554 19.6601 79.1327
lradius 20.3437
lwrist -15.3811
lhand -12.0569 25.5322
lfingers 7.12502
lthumb 14.0022 55.0406
rfemur 11.9298 6.87345 32.1715
rtibia 21.1877
rfoot -12.5397 -3.18051
rtoes -4.85828
lfemur -27.9499 -3.21505 -13.5707
ltibia 24.1357
lfoot -6.24023 5.16164
ltoes -11.4864
71
root 9.27059 17.3161 -18.5819 0.373511 -2.63989 -3.94127
lowerback 5.53972 1.20533 3.73796
upperback 0.296691 1.93221 3.19698
thorax -2.78934 0.932831 1.04886
lowerneck -16.8257 -4.8772 -9.82633
upperneck 20.7772 -5.62338 6.26518
head 9.83904 -2.69098 3.06028
rclavicle -2.05742e-014 -1.03368e-014
rhumerus -26.2432 -10.202 -77.8195
rradius 39.534
rwrist -0.316719
rhand -13.4028 13.3781
rfingers 7.12502
rthumb 12.7049 -16.2154
lclavicle -2.05742e-014 -1.03368e-014
lhumerus -38.9738 19.2064 79.1389
lradius 20.5214
lwrist -15.3049
lhand -12.6668 24.9291
lfingers 7.12502
lthumb 13.4144 54.4772
rfemur 11.6618 6.81261 31.8946
rtibia 22.5987
rfoot -12.1254 -2.93368
rtoes -5.7537
lfemur -27.6722 -3.20386 -13.8151
ltibia 24.1243
lfoot -5.32217 4.28141
ltoes -8.46545
72
root 9.28402 17.3311 -18.4081 0.322744 -2.76926 -3.48541
lowerback 5.58486 1.27849 3.37026
upperback 0.184351 2.00876 2.99533
thorax -2.93509 0.972272 1.03762
lowerneck -16.581 -4.91492 -9.76318
upperneck 20.7477 -5.71956 6.27305
head 9.78977 -2.73409 3.04184
rclavicle -1.04859e-014 -3.33958e-014
rhumerus -26.7028 -10.5626 -77.7893
rradius 39.5063
rwrist -0.411986
rhand -13.2994 13.573
rfingers 7.12502
rthumb 12.8046 -16.0143
lclavicle -1.04859e-014 -3.33958e-014
lhumerus -38.9195 19.719 78.6327
lradius 20.1499
lwrist -16.2363
lhand -12.5964 25.3358
lfingers 7.12502
lthumb 13.4822 54.8794
rfemur 11.3381 6.78106 31.3252
rtibia 24.2605
rfoot -11.4671 -2.59939
rtoes -6.69635
lfemur -27.1801 -3.13187 -14.3848
ltibia 24.1095
lfoot -4.61393 3.70712
ltoes -7.04856
73
root 9.29388 17.3524 -18.2283 0.294067 -2.73926 -2.77605
lowerback 5.5282 1.29253 2.65724
upperback 0.108945 1.9771 2.80322
thorax -2.99799 0.964691 1.24062
lowerneck -16.7965 -4.97532 -10.0794
upperneck 21.1193 -5.7872 6.5745
head 9.98823 -2.75541 3.19323
rclavicle 1.76421e-015 -2.14687e-014
rhumerus -27.1116 -10.8819 -77.7219
rradius 39.4713
rwrist -0.322664
rhand -13.4851 13.6597
rfingers 7.12502
rthumb 12.6256 -15.9387
lclavicle 1.76421e-015 -2.14687e-014
lhumerus -38.825 20.2528 78.2553
lradius 19.7437
lwrist -16.6468
lhand -12.1701 26.477
lfingers 7.12502
lthumb 13.8931 55.9929
rfemur 10.7563 6.69153 30.489
rtibia 26.2598
rfoot -10.6306 -2.22072
rtoes -6.72964
lfemur -26.6116 -3.004 -15.3268
ltibia 24.0291
lfoot -4.23051 2.81411
ltoes -5.51268
